<svg width="149" height="43" viewBox="0 0 149 43" fill="none" xmlns="http://www.w3.org/2000/svg">
<path d="M22.806 38.54L15.408 31.178L18.126 28.46L25.488 35.822L22.806 38.54ZM13.482 38.54C10.89 38.54 8.67 37.976 6.822 36.848C4.974 35.708 3.552 34.124 2.556 32.096C1.572 30.068 1.08 27.716 1.08 25.04C1.08 22.364 1.572 20.012 2.556 17.984C3.552 15.956 4.974 14.378 6.822 13.25C8.67 12.11 10.89 11.54 13.482 11.54C16.074 11.54 18.294 12.11 20.142 13.25C22.002 14.378 23.424 15.956 24.408 17.984C25.404 20.012 25.902 22.364 25.902 25.04C25.902 27.716 25.404 30.068 24.408 32.096C23.424 34.124 22.002 35.708 20.142 36.848C18.294 37.976 16.074 38.54 13.482 38.54ZM13.482 34.454C15.222 34.466 16.668 34.082 17.82 33.302C18.984 32.522 19.854 31.424 20.43 30.008C21.018 28.592 21.312 26.936 21.312 25.04C21.312 23.144 21.018 21.5 20.43 20.108C19.854 18.704 18.984 17.612 17.82 16.832C16.668 16.052 15.222 15.65 13.482 15.626C11.742 15.614 10.296 15.998 9.144 16.778C7.992 17.558 7.122 18.656 6.534 20.072C5.958 21.488 5.67 23.144 5.67 25.04C5.67 26.936 5.958 28.586 6.534 29.99C7.11 31.382 7.974 32.468 9.126 33.248C10.29 34.028 11.742 34.43 13.482 34.454ZM33.6248 38L27.6848 18.524L31.9328 18.56L35.7308 31.034L39.5828 18.56H43.2368L47.0708 31.034L50.8868 18.56H55.1348L49.1948 38H45.8108L41.4008 24.626L37.0088 38H33.6248ZM58.3473 38L58.3833 12.08H62.7753V27.92L69.8853 18.56H75.3033L67.7613 28.28L75.9513 38H70.2093L62.7753 28.64V38H58.3473ZM85.1968 38.54C83.4088 38.54 81.8488 38.09 80.5168 37.19C79.1848 36.29 78.1528 35.066 77.4208 33.518C76.6888 31.97 76.3228 30.224 76.3228 28.28C76.3228 26.312 76.6888 24.56 77.4208 23.024C78.1648 21.476 79.2148 20.258 80.5708 19.37C81.9268 18.47 83.5228 18.02 85.3588 18.02C87.2068 18.02 88.7548 18.47 90.0028 19.37C91.2628 20.258 92.2168 21.476 92.8648 23.024C93.5128 24.572 93.8368 26.324 93.8368 28.28C93.8368 30.212 93.5128 31.958 92.8648 33.518C92.2168 35.066 91.2508 36.29 89.9668 37.19C88.6828 38.09 87.0928 38.54 85.1968 38.54ZM85.8628 34.652C87.0268 34.652 87.9628 34.388 88.6708 33.86C89.3908 33.32 89.9128 32.57 90.2368 31.61C90.5728 30.65 90.7408 29.54 90.7408 28.28C90.7408 27.008 90.5728 25.898 90.2368 24.95C89.9128 23.99 89.4028 23.246 88.7068 22.718C88.0108 22.178 87.1108 21.908 86.0068 21.908C84.8428 21.908 83.8828 22.196 83.1268 22.772C82.3708 23.336 81.8128 24.104 81.4528 25.076C81.0928 26.036 80.9128 27.104 80.9128 28.28C80.9128 29.468 81.0868 30.548 81.4348 31.52C81.7948 32.48 82.3408 33.242 83.0728 33.806C83.8048 34.37 84.7348 34.652 85.8628 34.652ZM90.7408 38V24.356H90.2008V12.08H94.5748V38H90.7408ZM108.208 38.54C106.264 38.54 104.566 38.102 103.114 37.226C101.662 36.35 100.534 35.144 99.7296 33.608C98.9376 32.06 98.5416 30.284 98.5416 28.28C98.5416 26.24 98.9496 24.452 99.7656 22.916C100.582 21.38 101.716 20.18 103.168 19.316C104.62 18.452 106.3 18.02 108.208 18.02C110.164 18.02 111.868 18.458 113.32 19.334C114.772 20.21 115.9 21.422 116.704 22.97C117.508 24.506 117.91 26.276 117.91 28.28C117.91 30.296 117.502 32.078 116.686 33.626C115.882 35.162 114.754 36.368 113.302 37.244C111.85 38.108 110.152 38.54 108.208 38.54ZM108.208 34.472C109.936 34.472 111.22 33.896 112.06 32.744C112.9 31.592 113.32 30.104 113.32 28.28C113.32 26.396 112.894 24.896 112.042 23.78C111.19 22.652 109.912 22.088 108.208 22.088C107.044 22.088 106.084 22.352 105.328 22.88C104.584 23.396 104.032 24.122 103.672 25.058C103.312 25.982 103.132 27.056 103.132 28.28C103.132 30.164 103.558 31.67 104.41 32.798C105.274 33.914 106.54 34.472 108.208 34.472ZM130.317 38.54C128.313 38.54 126.603 38.096 125.187 37.208C123.771 36.308 122.685 35.084 121.929 33.536C121.185 31.988 120.807 30.236 120.795 28.28C120.807 26.288 121.197 24.524 121.965 22.988C122.745 21.44 123.849 20.228 125.277 19.352C126.705 18.464 128.403 18.02 130.371 18.02C132.579 18.02 134.445 18.578 135.969 19.694C137.505 20.798 138.507 22.31 138.975 24.23L134.655 25.4C134.319 24.356 133.761 23.546 132.981 22.97C132.201 22.382 131.313 22.088 130.317 22.088C129.189 22.088 128.259 22.358 127.527 22.898C126.795 23.426 126.255 24.158 125.907 25.094C125.559 26.03 125.385 27.092 125.385 28.28C125.385 30.128 125.799 31.622 126.627 32.762C127.455 33.902 128.685 34.472 130.317 34.472C131.469 34.472 132.375 34.208 133.035 33.68C133.707 33.152 134.211 32.39 134.547 31.394L138.975 32.384C138.375 34.364 137.325 35.888 135.825 36.956C134.325 38.012 132.489 38.54 130.317 38.54Z" fill="#40424F"/>
</svg>
