<svg width="156" height="87" viewBox="0 0 156 87" fill="none" xmlns="http://www.w3.org/2000/svg">
<g style="mix-blend-mode:luminosity">
<path fill-rule="evenodd" clip-rule="evenodd" d="M113.514 33.0432C109.398 34.9196 107.445 38.2683 107.432 43.4682C107.419 48.7463 109.33 52.0481 113.546 54.0337C117.229 55.7684 126.537 55.0005 126.537 52.9618C126.537 52.0742 125.73 52.1356 123.554 53.1885C121.317 54.2719 117.128 54.3709 115.161 53.3873C111.863 51.7389 110.216 48.3694 110.234 43.3038C110.25 38.7114 111.33 36.3631 114.375 34.3002C117 32.5218 120.232 32.3283 123.07 33.7788C124.909 34.719 126.096 34.662 126.096 33.6326C126.096 32.7745 122.579 31.977 118.924 32.0062C116.58 32.0247 115.145 32.3 113.514 33.0432ZM134.474 32.9C132.025 34.0112 130.275 35.635 129.037 37.9453C128.283 39.3539 128.091 40.4748 128.088 43.4682C128.084 48.9593 129.815 51.935 134.221 54.0103C136.909 55.2762 142.769 55.3393 145.578 54.1327C150.052 52.2112 152.474 47.7372 151.969 42.3261C151.346 35.6407 147.122 32 139.987 32C137.381 32 135.94 32.235 134.474 32.9ZM41.2562 32.9115C41.1486 33.2499 40.858 35.3164 40.6102 37.5035C40.3624 39.6905 39.8398 43.7664 39.4487 46.561C38.4543 53.6701 38.4252 54.7349 39.2256 54.7349C39.7278 54.7349 39.9602 53.9365 40.1917 51.4212C40.9343 43.337 41.583 39.0499 42.0627 39.0499C42.3392 39.0499 44.2513 42.4652 46.3123 46.6397C48.373 50.8141 50.2744 54.3015 50.5372 54.389C50.7996 54.4769 51.3217 53.8946 51.697 53.0953C52.0723 52.296 53.2611 49.7533 54.3388 47.4447C58.0002 39.6026 58.2842 39.0499 58.6506 39.0499C59.3253 39.0499 59.4523 39.7268 60.145 47.0055C60.5238 50.99 61.0111 54.4274 61.2276 54.6443C61.4441 54.8613 61.9896 54.9642 62.4398 54.8732C63.3681 54.685 63.3698 54.6271 62.6352 48.7702C62.3455 46.4616 61.845 41.9289 61.5235 38.6977C61.2016 35.4666 60.8405 32.7246 60.7209 32.6044C60.5225 32.4056 52.5617 47.0753 51.8888 48.8806C51.7301 49.3061 51.3372 49.6539 51.0161 49.6539C50.6947 49.6539 48.4806 45.8267 46.0963 41.1486C43.712 36.4705 41.691 32.5651 41.6059 32.4697C41.5208 32.3742 41.3634 32.5731 41.2562 32.9115ZM96.0914 33.5769C95.3783 35.456 91.6001 44.1111 88.344 51.324C87.1009 54.0779 87.0097 55.076 88.019 54.8776C88.419 54.799 89.0139 53.9604 89.3406 53.014C90.3438 50.1085 90.3742 50.0957 96.3599 50.0957C101.474 50.0957 101.833 50.1531 102.479 51.0779C102.857 51.6178 103.166 52.3822 103.166 52.7767C103.166 54.2144 105.777 55.6429 106.44 54.5675C106.572 54.3541 106.404 53.6087 106.067 52.9106C104.609 49.888 100.867 41.1146 98.8439 35.976C98.1304 34.1636 97.3239 32.6066 97.0518 32.5161C96.7793 32.425 96.3471 32.9022 96.0914 33.5769ZM0.380305 32.9747C0.358257 33.0352 0.308428 37.8918 0.270063 43.7664L0.199951 54.4482L4.33843 54.7588C14.4714 55.5201 20.2503 51.331 20.2613 43.2172C20.2684 38.2687 17.7337 34.3271 13.9281 33.3666C12.2825 32.9517 0.512595 32.6111 0.380305 32.9747ZM23.8944 43.7912L24.0122 54.7181L29.2972 54.7265C33.7501 54.7336 34.6029 54.6258 34.7158 54.0421C34.8304 53.4496 34.2263 53.3538 30.5332 53.3794L26.217 53.4094V48.1074V42.8054L29.414 42.6755C31.8125 42.5783 32.611 42.3901 32.611 41.9218C32.611 41.4534 31.8125 41.2652 29.414 41.168L26.217 41.0381L26.0808 38.6315C26.0058 37.3082 26.0631 35.7512 26.2086 35.1715C26.4657 34.1438 26.5742 34.1208 30.5314 34.2463C34.0711 34.3585 34.6086 34.2785 34.7352 33.6198C34.8662 32.9393 34.3286 32.8642 29.3285 32.8642H23.7763L23.8944 43.7912ZM66.8301 33.2349C66.7044 33.4386 66.6004 38.2912 66.5995 44.0183C66.5982 51.7932 66.7331 54.4764 67.1326 54.609C67.4272 54.7062 69.5712 54.8392 71.8968 54.9037C77.7736 55.0672 80.6893 54.1932 83.3307 51.4764C85.6008 49.1418 86.409 46.9803 86.409 43.2473C86.409 37.9899 84.109 34.385 80.1103 33.3763C77.7859 32.79 67.1741 32.6769 66.8301 33.2349ZM144.083 33.705C147.748 35.5877 149.195 38.3566 149.186 43.4682C149.177 48.3319 148.036 50.9489 145.116 52.8046C143.412 53.8875 142.674 54.0722 140.049 54.0722C135.877 54.0722 133.679 52.8107 132.055 49.4851C129.131 43.4969 130.802 36.3653 135.74 33.7505C137.899 32.608 141.905 32.5859 144.083 33.705ZM11.6757 34.2383C12.7455 34.5083 14.2126 35.2956 14.9358 35.9884C16.3654 37.3572 17.6182 40.8508 17.6182 43.4682C17.6182 45.9151 16.3887 49.5372 15.0601 51.0054C12.5872 53.7373 6.09569 54.9762 3.78722 53.1563L2.62527 52.2408V43.9626C2.62527 35.5338 2.78622 34.6285 4.38914 34.0545C5.57005 33.6317 9.68207 33.7355 11.6757 34.2383ZM77.5456 34.2176C81.6281 35.1604 83.7633 38.2042 83.7633 43.0807C83.7633 46.9008 82.9739 49.1391 80.9005 51.2003C78.0721 54.0116 72.3206 55.0844 70.032 53.2278C69.008 52.3972 68.9908 52.2518 68.9908 44.5016C68.9908 35.6584 69.1999 34.3386 70.6454 34.0598C72.5142 33.6988 75.6062 33.7695 77.5456 34.2176ZM154.318 34.8264C154.318 35.205 154.516 35.5152 154.759 35.5152C155.002 35.5152 155.2 35.3283 155.2 35.0995C155.2 34.8706 155.002 34.5609 154.759 34.4106C154.516 34.2604 154.318 34.4477 154.318 34.8264ZM97.7785 39.3812C100.064 44.4654 101.41 48.1123 101.202 48.6553C101.03 49.1042 99.8603 49.2125 96.2285 49.1166L91.4802 48.9911L91.5494 47.8768C91.5873 47.264 92.2325 45.4198 92.9826 43.7788C93.7326 42.1378 94.3465 40.7249 94.3465 40.6391C94.3465 39.8509 95.8092 37.2825 96.2581 37.2825C96.5756 37.2825 97.2595 38.2267 97.7785 39.3812Z" fill="black"/>
</g>
</svg>
