<svg width="183" height="183" viewBox="0 0 183 183" fill="none" xmlns="http://www.w3.org/2000/svg">
<g clip-path="url(#clip0_49_415)">
<path d="M5.05812 9.69534C7.73541 9.69534 9.90579 7.52496 9.90579 4.84767C9.90579 2.17038 7.73541 0 5.05812 0C2.38082 0 0.210449 2.17038 0.210449 4.84767C0.210449 7.52496 2.38082 9.69534 5.05812 9.69534Z" fill="white"/>
<path d="M29.7559 9.69534C32.4332 9.69534 34.6035 7.52496 34.6035 4.84767C34.6035 2.17038 32.4332 0 29.7559 0C27.0786 0 24.9082 2.17038 24.9082 4.84767C24.9082 7.52496 27.0786 9.69534 29.7559 9.69534Z" fill="white"/>
<path d="M54.4534 9.69534C57.1307 9.69534 59.301 7.52496 59.301 4.84767C59.301 2.17038 57.1307 0 54.4534 0C51.7761 0 49.6057 2.17038 49.6057 4.84767C49.6057 7.52496 51.7761 9.69534 54.4534 9.69534Z" fill="white"/>
<path d="M79.1511 9.69534C81.8284 9.69534 83.9988 7.52496 83.9988 4.84767C83.9988 2.17038 81.8284 0 79.1511 0C76.4738 0 74.3035 2.17038 74.3035 4.84767C74.3035 7.52496 76.4738 9.69534 79.1511 9.69534Z" fill="white"/>
<path d="M103.849 9.69534C106.526 9.69534 108.697 7.52496 108.697 4.84767C108.697 2.17038 106.526 0 103.849 0C101.172 0 99.0012 2.17038 99.0012 4.84767C99.0012 7.52496 101.172 9.69534 103.849 9.69534Z" fill="white"/>
<path d="M128.547 9.69534C131.224 9.69534 133.394 7.52496 133.394 4.84767C133.394 2.17038 131.224 0 128.547 0C125.869 0 123.699 2.17038 123.699 4.84767C123.699 7.52496 125.869 9.69534 128.547 9.69534Z" fill="white"/>
<path d="M153.244 9.69534C155.921 9.69534 158.092 7.52496 158.092 4.84767C158.092 2.17038 155.921 0 153.244 0C150.567 0 148.396 2.17038 148.396 4.84767C148.396 7.52496 150.567 9.69534 153.244 9.69534Z" fill="white"/>
<path d="M177.942 9.69534C180.619 9.69534 182.79 7.52496 182.79 4.84767C182.79 2.17038 180.619 0 177.942 0C175.265 0 173.094 2.17038 173.094 4.84767C173.094 7.52496 175.265 9.69534 177.942 9.69534Z" fill="white"/>
<path d="M5.05812 34.4536C7.73541 34.4536 9.90579 32.2833 9.90579 29.606C9.90579 26.9287 7.73541 24.7583 5.05812 24.7583C2.38082 24.7583 0.210449 26.9287 0.210449 29.606C0.210449 32.2833 2.38082 34.4536 5.05812 34.4536Z" fill="white"/>
<path d="M29.7559 34.4536C32.4332 34.4536 34.6035 32.2833 34.6035 29.606C34.6035 26.9287 32.4332 24.7583 29.7559 24.7583C27.0786 24.7583 24.9082 26.9287 24.9082 29.606C24.9082 32.2833 27.0786 34.4536 29.7559 34.4536Z" fill="white"/>
<path d="M54.4534 34.4536C57.1307 34.4536 59.301 32.2833 59.301 29.606C59.301 26.9287 57.1307 24.7583 54.4534 24.7583C51.7761 24.7583 49.6057 26.9287 49.6057 29.606C49.6057 32.2833 51.7761 34.4536 54.4534 34.4536Z" fill="white"/>
<path d="M79.1511 34.4536C81.8284 34.4536 83.9988 32.2833 83.9988 29.606C83.9988 26.9287 81.8284 24.7583 79.1511 24.7583C76.4738 24.7583 74.3035 26.9287 74.3035 29.606C74.3035 32.2833 76.4738 34.4536 79.1511 34.4536Z" fill="white"/>
<path d="M103.849 34.4536C106.526 34.4536 108.697 32.2833 108.697 29.606C108.697 26.9287 106.526 24.7583 103.849 24.7583C101.172 24.7583 99.0012 26.9287 99.0012 29.606C99.0012 32.2833 101.172 34.4536 103.849 34.4536Z" fill="white"/>
<path d="M128.547 34.4536C131.224 34.4536 133.394 32.2833 133.394 29.606C133.394 26.9287 131.224 24.7583 128.547 24.7583C125.869 24.7583 123.699 26.9287 123.699 29.606C123.699 32.2833 125.869 34.4536 128.547 34.4536Z" fill="white"/>
<path d="M153.244 34.4536C155.921 34.4536 158.092 32.2833 158.092 29.606C158.092 26.9287 155.921 24.7583 153.244 24.7583C150.567 24.7583 148.396 26.9287 148.396 29.606C148.396 32.2833 150.567 34.4536 153.244 34.4536Z" fill="white"/>
<path d="M177.942 34.4536C180.619 34.4536 182.79 32.2833 182.79 29.606C182.79 26.9287 180.619 24.7583 177.942 24.7583C175.265 24.7583 173.094 26.9287 173.094 29.606C173.094 32.2833 175.265 34.4536 177.942 34.4536Z" fill="white"/>
<path d="M5.05812 59.2114C7.73541 59.2114 9.90579 57.0411 9.90579 54.3638C9.90579 51.6865 7.73541 49.5161 5.05812 49.5161C2.38082 49.5161 0.210449 51.6865 0.210449 54.3638C0.210449 57.0411 2.38082 59.2114 5.05812 59.2114Z" fill="white"/>
<path d="M29.7559 59.2114C32.4332 59.2114 34.6035 57.0411 34.6035 54.3638C34.6035 51.6865 32.4332 49.5161 29.7559 49.5161C27.0786 49.5161 24.9082 51.6865 24.9082 54.3638C24.9082 57.0411 27.0786 59.2114 29.7559 59.2114Z" fill="white"/>
<path d="M54.4534 59.2114C57.1307 59.2114 59.301 57.0411 59.301 54.3638C59.301 51.6865 57.1307 49.5161 54.4534 49.5161C51.7761 49.5161 49.6057 51.6865 49.6057 54.3638C49.6057 57.0411 51.7761 59.2114 54.4534 59.2114Z" fill="white"/>
<path d="M79.1511 59.2114C81.8284 59.2114 83.9988 57.0411 83.9988 54.3638C83.9988 51.6865 81.8284 49.5161 79.1511 49.5161C76.4738 49.5161 74.3035 51.6865 74.3035 54.3638C74.3035 57.0411 76.4738 59.2114 79.1511 59.2114Z" fill="white"/>
<path d="M103.849 59.2114C106.526 59.2114 108.697 57.0411 108.697 54.3638C108.697 51.6865 106.526 49.5161 103.849 49.5161C101.172 49.5161 99.0012 51.6865 99.0012 54.3638C99.0012 57.0411 101.172 59.2114 103.849 59.2114Z" fill="white"/>
<path d="M128.547 59.2114C131.224 59.2114 133.394 57.0411 133.394 54.3638C133.394 51.6865 131.224 49.5161 128.547 49.5161C125.869 49.5161 123.699 51.6865 123.699 54.3638C123.699 57.0411 125.869 59.2114 128.547 59.2114Z" fill="white"/>
<path d="M153.244 59.2114C155.921 59.2114 158.092 57.0411 158.092 54.3638C158.092 51.6865 155.921 49.5161 153.244 49.5161C150.567 49.5161 148.396 51.6865 148.396 54.3638C148.396 57.0411 150.567 59.2114 153.244 59.2114Z" fill="white"/>
<path d="M177.942 59.2114C180.619 59.2114 182.79 57.0411 182.79 54.3638C182.79 51.6865 180.619 49.5161 177.942 49.5161C175.265 49.5161 173.094 51.6865 173.094 54.3638C173.094 57.0411 175.265 59.2114 177.942 59.2114Z" fill="white"/>
<path d="M5.05812 83.9697C7.73541 83.9697 9.90579 81.7994 9.90579 79.1221C9.90579 76.4448 7.73541 74.2744 5.05812 74.2744C2.38082 74.2744 0.210449 76.4448 0.210449 79.1221C0.210449 81.7994 2.38082 83.9697 5.05812 83.9697Z" fill="white"/>
<path d="M29.7559 83.9697C32.4332 83.9697 34.6035 81.7994 34.6035 79.1221C34.6035 76.4448 32.4332 74.2744 29.7559 74.2744C27.0786 74.2744 24.9082 76.4448 24.9082 79.1221C24.9082 81.7994 27.0786 83.9697 29.7559 83.9697Z" fill="white"/>
<path d="M54.4534 83.9697C57.1307 83.9697 59.301 81.7994 59.301 79.1221C59.301 76.4448 57.1307 74.2744 54.4534 74.2744C51.7761 74.2744 49.6057 76.4448 49.6057 79.1221C49.6057 81.7994 51.7761 83.9697 54.4534 83.9697Z" fill="white"/>
<path d="M79.1511 83.9697C81.8284 83.9697 83.9988 81.7994 83.9988 79.1221C83.9988 76.4448 81.8284 74.2744 79.1511 74.2744C76.4738 74.2744 74.3035 76.4448 74.3035 79.1221C74.3035 81.7994 76.4738 83.9697 79.1511 83.9697Z" fill="white"/>
<path d="M103.849 83.9697C106.526 83.9697 108.697 81.7994 108.697 79.1221C108.697 76.4448 106.526 74.2744 103.849 74.2744C101.172 74.2744 99.0012 76.4448 99.0012 79.1221C99.0012 81.7994 101.172 83.9697 103.849 83.9697Z" fill="white"/>
<path d="M128.547 83.9697C131.224 83.9697 133.394 81.7994 133.394 79.1221C133.394 76.4448 131.224 74.2744 128.547 74.2744C125.869 74.2744 123.699 76.4448 123.699 79.1221C123.699 81.7994 125.869 83.9697 128.547 83.9697Z" fill="white"/>
<path d="M153.244 83.9697C155.921 83.9697 158.092 81.7994 158.092 79.1221C158.092 76.4448 155.921 74.2744 153.244 74.2744C150.567 74.2744 148.396 76.4448 148.396 79.1221C148.396 81.7994 150.567 83.9697 153.244 83.9697Z" fill="white"/>
<path d="M177.942 83.9697C180.619 83.9697 182.79 81.7994 182.79 79.1221C182.79 76.4448 180.619 74.2744 177.942 74.2744C175.265 74.2744 173.094 76.4448 173.094 79.1221C173.094 81.7994 175.265 83.9697 177.942 83.9697Z" fill="white"/>
<path d="M5.05812 108.726C7.73541 108.726 9.90579 106.555 9.90579 103.878C9.90579 101.201 7.73541 99.0303 5.05812 99.0303C2.38082 99.0303 0.210449 101.201 0.210449 103.878C0.210449 106.555 2.38082 108.726 5.05812 108.726Z" fill="white"/>
<path d="M29.7559 108.726C32.4332 108.726 34.6035 106.555 34.6035 103.878C34.6035 101.201 32.4332 99.0303 29.7559 99.0303C27.0786 99.0303 24.9082 101.201 24.9082 103.878C24.9082 106.555 27.0786 108.726 29.7559 108.726Z" fill="white"/>
<path d="M54.4534 108.726C57.1307 108.726 59.301 106.555 59.301 103.878C59.301 101.201 57.1307 99.0303 54.4534 99.0303C51.7761 99.0303 49.6057 101.201 49.6057 103.878C49.6057 106.555 51.7761 108.726 54.4534 108.726Z" fill="white"/>
<path d="M79.1511 108.726C81.8284 108.726 83.9988 106.555 83.9988 103.878C83.9988 101.201 81.8284 99.0303 79.1511 99.0303C76.4738 99.0303 74.3035 101.201 74.3035 103.878C74.3035 106.555 76.4738 108.726 79.1511 108.726Z" fill="white"/>
<path d="M103.849 108.726C106.526 108.726 108.697 106.555 108.697 103.878C108.697 101.201 106.526 99.0303 103.849 99.0303C101.172 99.0303 99.0012 101.201 99.0012 103.878C99.0012 106.555 101.172 108.726 103.849 108.726Z" fill="white"/>
<path d="M128.547 108.726C131.224 108.726 133.394 106.555 133.394 103.878C133.394 101.201 131.224 99.0303 128.547 99.0303C125.869 99.0303 123.699 101.201 123.699 103.878C123.699 106.555 125.869 108.726 128.547 108.726Z" fill="white"/>
<path d="M153.244 108.726C155.921 108.726 158.092 106.555 158.092 103.878C158.092 101.201 155.921 99.0303 153.244 99.0303C150.567 99.0303 148.396 101.201 148.396 103.878C148.396 106.555 150.567 108.726 153.244 108.726Z" fill="white"/>
<path d="M177.942 108.726C180.619 108.726 182.79 106.555 182.79 103.878C182.79 101.201 180.619 99.0303 177.942 99.0303C175.265 99.0303 173.094 101.201 173.094 103.878C173.094 106.555 175.265 108.726 177.942 108.726Z" fill="white"/>
<path d="M5.05812 133.484C7.73541 133.484 9.90579 131.314 9.90579 128.636C9.90579 125.959 7.73541 123.789 5.05812 123.789C2.38082 123.789 0.210449 125.959 0.210449 128.636C0.210449 131.314 2.38082 133.484 5.05812 133.484Z" fill="white"/>
<path d="M29.7559 133.484C32.4332 133.484 34.6035 131.314 34.6035 128.636C34.6035 125.959 32.4332 123.789 29.7559 123.789C27.0786 123.789 24.9082 125.959 24.9082 128.636C24.9082 131.314 27.0786 133.484 29.7559 133.484Z" fill="white"/>
<path d="M54.4534 133.484C57.1307 133.484 59.301 131.314 59.301 128.636C59.301 125.959 57.1307 123.789 54.4534 123.789C51.7761 123.789 49.6057 125.959 49.6057 128.636C49.6057 131.314 51.7761 133.484 54.4534 133.484Z" fill="white"/>
<path d="M79.1511 133.484C81.8284 133.484 83.9988 131.314 83.9988 128.636C83.9988 125.959 81.8284 123.789 79.1511 123.789C76.4738 123.789 74.3035 125.959 74.3035 128.636C74.3035 131.314 76.4738 133.484 79.1511 133.484Z" fill="white"/>
<path d="M103.849 133.484C106.526 133.484 108.697 131.314 108.697 128.636C108.697 125.959 106.526 123.789 103.849 123.789C101.172 123.789 99.0012 125.959 99.0012 128.636C99.0012 131.314 101.172 133.484 103.849 133.484Z" fill="white"/>
<path d="M128.547 133.484C131.224 133.484 133.394 131.314 133.394 128.636C133.394 125.959 131.224 123.789 128.547 123.789C125.869 123.789 123.699 125.959 123.699 128.636C123.699 131.314 125.869 133.484 128.547 133.484Z" fill="white"/>
<path d="M153.244 133.484C155.921 133.484 158.092 131.314 158.092 128.636C158.092 125.959 155.921 123.789 153.244 123.789C150.567 123.789 148.396 125.959 148.396 128.636C148.396 131.314 150.567 133.484 153.244 133.484Z" fill="white"/>
<path d="M177.942 133.484C180.619 133.484 182.79 131.314 182.79 128.636C182.79 125.959 180.619 123.789 177.942 123.789C175.265 123.789 173.094 125.959 173.094 128.636C173.094 131.314 175.265 133.484 177.942 133.484Z" fill="white"/>
<path d="M5.05812 158.242C7.73541 158.242 9.90579 156.071 9.90579 153.394C9.90579 150.717 7.73541 148.546 5.05812 148.546C2.38082 148.546 0.210449 150.717 0.210449 153.394C0.210449 156.071 2.38082 158.242 5.05812 158.242Z" fill="white"/>
<path d="M29.7559 158.242C32.4332 158.242 34.6035 156.071 34.6035 153.394C34.6035 150.717 32.4332 148.546 29.7559 148.546C27.0786 148.546 24.9082 150.717 24.9082 153.394C24.9082 156.071 27.0786 158.242 29.7559 158.242Z" fill="white"/>
<path d="M54.4534 158.242C57.1307 158.242 59.301 156.071 59.301 153.394C59.301 150.717 57.1307 148.546 54.4534 148.546C51.7761 148.546 49.6057 150.717 49.6057 153.394C49.6057 156.071 51.7761 158.242 54.4534 158.242Z" fill="white"/>
<path d="M79.1511 158.242C81.8284 158.242 83.9988 156.071 83.9988 153.394C83.9988 150.717 81.8284 148.546 79.1511 148.546C76.4738 148.546 74.3035 150.717 74.3035 153.394C74.3035 156.071 76.4738 158.242 79.1511 158.242Z" fill="white"/>
<path d="M103.849 158.242C106.526 158.242 108.697 156.071 108.697 153.394C108.697 150.717 106.526 148.546 103.849 148.546C101.172 148.546 99.0012 150.717 99.0012 153.394C99.0012 156.071 101.172 158.242 103.849 158.242Z" fill="white"/>
<path d="M128.547 158.242C131.224 158.242 133.394 156.071 133.394 153.394C133.394 150.717 131.224 148.546 128.547 148.546C125.869 148.546 123.699 150.717 123.699 153.394C123.699 156.071 125.869 158.242 128.547 158.242Z" fill="white"/>
<path d="M153.244 158.242C155.921 158.242 158.092 156.071 158.092 153.394C158.092 150.717 155.921 148.546 153.244 148.546C150.567 148.546 148.396 150.717 148.396 153.394C148.396 156.071 150.567 158.242 153.244 158.242Z" fill="white"/>
<path d="M177.942 158.242C180.619 158.242 182.79 156.071 182.79 153.394C182.79 150.717 180.619 148.546 177.942 148.546C175.265 148.546 173.094 150.717 173.094 153.394C173.094 156.071 175.265 158.242 177.942 158.242Z" fill="white"/>
<path d="M5.05812 183C7.73541 183 9.90579 180.83 9.90579 178.152C9.90579 175.475 7.73541 173.305 5.05812 173.305C2.38082 173.305 0.210449 175.475 0.210449 178.152C0.210449 180.83 2.38082 183 5.05812 183Z" fill="white"/>
<path d="M29.7559 183C32.4332 183 34.6035 180.83 34.6035 178.152C34.6035 175.475 32.4332 173.305 29.7559 173.305C27.0786 173.305 24.9082 175.475 24.9082 178.152C24.9082 180.83 27.0786 183 29.7559 183Z" fill="white"/>
<path d="M54.4534 183C57.1307 183 59.301 180.83 59.301 178.152C59.301 175.475 57.1307 173.305 54.4534 173.305C51.7761 173.305 49.6057 175.475 49.6057 178.152C49.6057 180.83 51.7761 183 54.4534 183Z" fill="white"/>
<path d="M79.1511 183C81.8284 183 83.9988 180.83 83.9988 178.152C83.9988 175.475 81.8284 173.305 79.1511 173.305C76.4738 173.305 74.3035 175.475 74.3035 178.152C74.3035 180.83 76.4738 183 79.1511 183Z" fill="white"/>
<path d="M103.849 183C106.526 183 108.697 180.83 108.697 178.152C108.697 175.475 106.526 173.305 103.849 173.305C101.172 173.305 99.0012 175.475 99.0012 178.152C99.0012 180.83 101.172 183 103.849 183Z" fill="white"/>
<path d="M128.547 183C131.224 183 133.394 180.83 133.394 178.152C133.394 175.475 131.224 173.305 128.547 173.305C125.869 173.305 123.699 175.475 123.699 178.152C123.699 180.83 125.869 183 128.547 183Z" fill="white"/>
<path d="M153.244 183C155.921 183 158.092 180.83 158.092 178.152C158.092 175.475 155.921 173.305 153.244 173.305C150.567 173.305 148.396 175.475 148.396 178.152C148.396 180.83 150.567 183 153.244 183Z" fill="white"/>
<path d="M177.942 183C180.619 183 182.79 180.83 182.79 178.152C182.79 175.475 180.619 173.305 177.942 173.305C175.265 173.305 173.094 175.475 173.094 178.152C173.094 180.83 175.265 183 177.942 183Z" fill="white"/>
</g>
<defs>
<clipPath id="clip0_49_415">
<rect width="183" height="183" fill="white"/>
</clipPath>
</defs>
</svg>
