<svg width="116" height="116" viewBox="0 0 116 116" fill="none" xmlns="http://www.w3.org/2000/svg">
<path d="M3.20614 21.8393C4.90322 21.8393 6.27898 20.4635 6.27898 18.7664C6.27898 17.0694 4.90322 15.6936 3.20614 15.6936C1.50906 15.6936 0.133301 17.0694 0.133301 18.7664C0.133301 20.4635 1.50906 21.8393 3.20614 21.8393Z" fill="white"/>
<path d="M18.8617 21.8393C20.5587 21.8393 21.9345 20.4635 21.9345 18.7664C21.9345 17.0694 20.5587 15.6936 18.8617 15.6936C17.1646 15.6936 15.7888 17.0694 15.7888 18.7664C15.7888 20.4635 17.1646 21.8393 18.8617 21.8393Z" fill="white"/>
<path d="M34.5169 21.8393C36.214 21.8393 37.5898 20.4635 37.5898 18.7664C37.5898 17.0694 36.214 15.6936 34.5169 15.6936C32.8198 15.6936 31.4441 17.0694 31.4441 18.7664C31.4441 20.4635 32.8198 21.8393 34.5169 21.8393Z" fill="white"/>
<path d="M50.1722 21.8393C51.8693 21.8393 53.245 20.4635 53.245 18.7664C53.245 17.0694 51.8693 15.6936 50.1722 15.6936C48.4751 15.6936 47.0994 17.0694 47.0994 18.7664C47.0994 20.4635 48.4751 21.8393 50.1722 21.8393Z" fill="white"/>
<path d="M65.8277 21.8393C67.5248 21.8393 68.9006 20.4635 68.9006 18.7664C68.9006 17.0694 67.5248 15.6936 65.8277 15.6936C64.1306 15.6936 62.7549 17.0694 62.7549 18.7664C62.7549 20.4635 64.1306 21.8393 65.8277 21.8393Z" fill="white"/>
<path d="M81.483 21.8393C83.1801 21.8393 84.5558 20.4635 84.5558 18.7664C84.5558 17.0694 83.1801 15.6936 81.483 15.6936C79.7859 15.6936 78.4102 17.0694 78.4102 18.7664C78.4102 20.4635 79.7859 21.8393 81.483 21.8393Z" fill="white"/>
<path d="M97.1385 21.8393C98.8356 21.8393 100.211 20.4635 100.211 18.7664C100.211 17.0694 98.8356 15.6936 97.1385 15.6936C95.4414 15.6936 94.0657 17.0694 94.0657 18.7664C94.0657 20.4635 95.4414 21.8393 97.1385 21.8393Z" fill="white"/>
<path d="M112.794 21.8393C114.491 21.8393 115.867 20.4635 115.867 18.7664C115.867 17.0694 114.491 15.6936 112.794 15.6936C111.097 15.6936 109.721 17.0694 109.721 18.7664C109.721 20.4635 111.097 21.8393 112.794 21.8393Z" fill="white"/>
<path d="M3.20614 37.5329C4.90322 37.5329 6.27898 36.1571 6.27898 34.46C6.27898 32.763 4.90322 31.3872 3.20614 31.3872C1.50906 31.3872 0.133301 32.763 0.133301 34.46C0.133301 36.1571 1.50906 37.5329 3.20614 37.5329Z" fill="white"/>
<path d="M112.794 37.5329C114.491 37.5329 115.867 36.1571 115.867 34.46C115.867 32.763 114.491 31.3872 112.794 31.3872C111.097 31.3872 109.721 32.763 109.721 34.46C109.721 36.1571 111.097 37.5329 112.794 37.5329Z" fill="white"/>
<path d="M3.20614 53.2265C4.90322 53.2265 6.27898 51.8507 6.27898 50.1536C6.27898 48.4566 4.90322 47.0808 3.20614 47.0808C1.50906 47.0808 0.133301 48.4566 0.133301 50.1536C0.133301 51.8507 1.50906 53.2265 3.20614 53.2265Z" fill="white"/>
<path d="M112.794 53.2265C114.491 53.2265 115.867 51.8507 115.867 50.1536C115.867 48.4566 114.491 47.0808 112.794 47.0808C111.097 47.0808 109.721 48.4566 109.721 50.1536C109.721 51.8507 111.097 53.2265 112.794 53.2265Z" fill="white"/>
<path d="M3.20614 68.9191C4.90322 68.9191 6.27898 67.5434 6.27898 65.8463C6.27898 64.1492 4.90322 62.7734 3.20614 62.7734C1.50906 62.7734 0.133301 64.1492 0.133301 65.8463C0.133301 67.5434 1.50906 68.9191 3.20614 68.9191Z" fill="white"/>
<path d="M112.794 68.9191C114.491 68.9191 115.867 67.5434 115.867 65.8463C115.867 64.1492 114.491 62.7734 112.794 62.7734C111.097 62.7734 109.721 64.1492 109.721 65.8463C109.721 67.5434 111.097 68.9191 112.794 68.9191Z" fill="white"/>
<path d="M3.20614 84.6127C4.90322 84.6127 6.27898 83.237 6.27898 81.5399C6.27898 79.8428 4.90322 78.467 3.20614 78.467C1.50906 78.467 0.133301 79.8428 0.133301 81.5399C0.133301 83.237 1.50906 84.6127 3.20614 84.6127Z" fill="white"/>
<path d="M112.794 84.6127C114.491 84.6127 115.867 83.237 115.867 81.5399C115.867 79.8428 114.491 78.467 112.794 78.467C111.097 78.467 109.721 79.8428 109.721 81.5399C109.721 83.237 111.097 84.6127 112.794 84.6127Z" fill="white"/>
<path d="M3.20614 100.306C4.90322 100.306 6.27898 98.9306 6.27898 97.2335C6.27898 95.5364 4.90322 94.1606 3.20614 94.1606C1.50906 94.1606 0.133301 95.5364 0.133301 97.2335C0.133301 98.9306 1.50906 100.306 3.20614 100.306Z" fill="white"/>
<path d="M18.8617 100.306C20.5587 100.306 21.9345 98.9306 21.9345 97.2335C21.9345 95.5364 20.5587 94.1606 18.8617 94.1606C17.1646 94.1606 15.7888 95.5364 15.7888 97.2335C15.7888 98.9306 17.1646 100.306 18.8617 100.306Z" fill="white"/>
<path d="M34.5169 100.306C36.214 100.306 37.5898 98.9306 37.5898 97.2335C37.5898 95.5364 36.214 94.1606 34.5169 94.1606C32.8198 94.1606 31.4441 95.5364 31.4441 97.2335C31.4441 98.9306 32.8198 100.306 34.5169 100.306Z" fill="white"/>
<path d="M50.1722 100.306C51.8693 100.306 53.245 98.9306 53.245 97.2335C53.245 95.5364 51.8693 94.1606 50.1722 94.1606C48.4751 94.1606 47.0994 95.5364 47.0994 97.2335C47.0994 98.9306 48.4751 100.306 50.1722 100.306Z" fill="white"/>
<path d="M65.8277 100.306C67.5248 100.306 68.9006 98.9306 68.9006 97.2335C68.9006 95.5364 67.5248 94.1606 65.8277 94.1606C64.1306 94.1606 62.7549 95.5364 62.7549 97.2335C62.7549 98.9306 64.1306 100.306 65.8277 100.306Z" fill="white"/>
<path d="M81.483 100.306C83.1801 100.306 84.5558 98.9306 84.5558 97.2335C84.5558 95.5364 83.1801 94.1606 81.483 94.1606C79.7859 94.1606 78.4102 95.5364 78.4102 97.2335C78.4102 98.9306 79.7859 100.306 81.483 100.306Z" fill="white"/>
<path d="M97.1385 100.306C98.8356 100.306 100.211 98.9306 100.211 97.2335C100.211 95.5364 98.8356 94.1606 97.1385 94.1606C95.4414 94.1606 94.0657 95.5364 94.0657 97.2335C94.0657 98.9306 95.4414 100.306 97.1385 100.306Z" fill="white"/>
<path d="M112.794 100.306C114.491 100.306 115.867 98.9306 115.867 97.2335C115.867 95.5364 114.491 94.1606 112.794 94.1606C111.097 94.1606 109.721 95.5364 109.721 97.2335C109.721 98.9306 111.097 100.306 112.794 100.306Z" fill="white"/>
</svg>
