<svg width="128" height="128" viewBox="0 0 128 128" fill="none" xmlns="http://www.w3.org/2000/svg">
<g clip-path="url(#clip0_49_480)">
<path d="M3.53794 6.78144C5.41058 6.78144 6.92866 5.26336 6.92866 3.39072C6.92866 1.51808 5.41058 0 3.53794 0C1.66529 0 0.147217 1.51808 0.147217 3.39072C0.147217 5.26336 1.66529 6.78144 3.53794 6.78144Z" fill="white"/>
<path d="M20.8128 6.78144C22.6855 6.78144 24.2036 5.26336 24.2036 3.39072C24.2036 1.51808 22.6855 0 20.8128 0C18.9402 0 17.4221 1.51808 17.4221 3.39072C17.4221 5.26336 18.9402 6.78144 20.8128 6.78144Z" fill="white"/>
<path d="M38.0877 6.78144C39.9604 6.78144 41.4785 5.26336 41.4785 3.39072C41.4785 1.51808 39.9604 0 38.0877 0C36.2151 0 34.697 1.51808 34.697 3.39072C34.697 5.26336 36.2151 6.78144 38.0877 6.78144Z" fill="white"/>
<path d="M55.3626 6.78144C57.2353 6.78144 58.7534 5.26336 58.7534 3.39072C58.7534 1.51808 57.2353 0 55.3626 0C53.49 0 51.9719 1.51808 51.9719 3.39072C51.9719 5.26336 53.49 6.78144 55.3626 6.78144Z" fill="white"/>
<path d="M72.6375 6.78144C74.5102 6.78144 76.0283 5.26336 76.0283 3.39072C76.0283 1.51808 74.5102 0 72.6375 0C70.7649 0 69.2468 1.51808 69.2468 3.39072C69.2468 5.26336 70.7649 6.78144 72.6375 6.78144Z" fill="white"/>
<path d="M89.9122 6.78144C91.7849 6.78144 93.3029 5.26336 93.3029 3.39072C93.3029 1.51808 91.7849 0 89.9122 0C88.0396 0 86.5215 1.51808 86.5215 3.39072C86.5215 5.26336 88.0396 6.78144 89.9122 6.78144Z" fill="white"/>
<path d="M107.187 6.78144C109.06 6.78144 110.578 5.26336 110.578 3.39072C110.578 1.51808 109.06 0 107.187 0C105.314 0 103.796 1.51808 103.796 3.39072C103.796 5.26336 105.314 6.78144 107.187 6.78144Z" fill="white"/>
<path d="M124.462 6.78144C126.335 6.78144 127.853 5.26336 127.853 3.39072C127.853 1.51808 126.335 0 124.462 0C122.589 0 121.071 1.51808 121.071 3.39072C121.071 5.26336 122.589 6.78144 124.462 6.78144Z" fill="white"/>
<path d="M3.53794 24.0986C5.41058 24.0986 6.92866 22.5805 6.92866 20.7079C6.92866 18.8352 5.41058 17.3171 3.53794 17.3171C1.66529 17.3171 0.147217 18.8352 0.147217 20.7079C0.147217 22.5805 1.66529 24.0986 3.53794 24.0986Z" fill="white"/>
<path d="M20.8128 24.0986C22.6855 24.0986 24.2036 22.5805 24.2036 20.7079C24.2036 18.8352 22.6855 17.3171 20.8128 17.3171C18.9402 17.3171 17.4221 18.8352 17.4221 20.7079C17.4221 22.5805 18.9402 24.0986 20.8128 24.0986Z" fill="white"/>
<path d="M38.0877 24.0986C39.9604 24.0986 41.4785 22.5805 41.4785 20.7079C41.4785 18.8352 39.9604 17.3171 38.0877 17.3171C36.2151 17.3171 34.697 18.8352 34.697 20.7079C34.697 22.5805 36.2151 24.0986 38.0877 24.0986Z" fill="white"/>
<path d="M55.3626 24.0986C57.2353 24.0986 58.7534 22.5805 58.7534 20.7079C58.7534 18.8352 57.2353 17.3171 55.3626 17.3171C53.49 17.3171 51.9719 18.8352 51.9719 20.7079C51.9719 22.5805 53.49 24.0986 55.3626 24.0986Z" fill="white"/>
<path d="M72.6375 24.0986C74.5102 24.0986 76.0283 22.5805 76.0283 20.7079C76.0283 18.8352 74.5102 17.3171 72.6375 17.3171C70.7649 17.3171 69.2468 18.8352 69.2468 20.7079C69.2468 22.5805 70.7649 24.0986 72.6375 24.0986Z" fill="white"/>
<path d="M89.9122 24.0986C91.7849 24.0986 93.3029 22.5805 93.3029 20.7079C93.3029 18.8352 91.7849 17.3171 89.9122 17.3171C88.0396 17.3171 86.5215 18.8352 86.5215 20.7079C86.5215 22.5805 88.0396 24.0986 89.9122 24.0986Z" fill="white"/>
<path d="M107.187 24.0986C109.06 24.0986 110.578 22.5805 110.578 20.7079C110.578 18.8352 109.06 17.3171 107.187 17.3171C105.314 17.3171 103.796 18.8352 103.796 20.7079C103.796 22.5805 105.314 24.0986 107.187 24.0986Z" fill="white"/>
<path d="M124.462 24.0986C126.335 24.0986 127.853 22.5805 127.853 20.7079C127.853 18.8352 126.335 17.3171 124.462 17.3171C122.589 17.3171 121.071 18.8352 121.071 20.7079C121.071 22.5805 122.589 24.0986 124.462 24.0986Z" fill="white"/>
<path d="M3.53794 41.4157C5.41058 41.4157 6.92866 39.8976 6.92866 38.025C6.92866 36.1524 5.41058 34.6343 3.53794 34.6343C1.66529 34.6343 0.147217 36.1524 0.147217 38.025C0.147217 39.8976 1.66529 41.4157 3.53794 41.4157Z" fill="white"/>
<path d="M20.8128 41.4157C22.6855 41.4157 24.2036 39.8976 24.2036 38.025C24.2036 36.1524 22.6855 34.6343 20.8128 34.6343C18.9402 34.6343 17.4221 36.1524 17.4221 38.025C17.4221 39.8976 18.9402 41.4157 20.8128 41.4157Z" fill="white"/>
<path d="M38.0877 41.4157C39.9604 41.4157 41.4785 39.8976 41.4785 38.025C41.4785 36.1524 39.9604 34.6343 38.0877 34.6343C36.2151 34.6343 34.697 36.1524 34.697 38.025C34.697 39.8976 36.2151 41.4157 38.0877 41.4157Z" fill="white"/>
<path d="M55.3626 41.4157C57.2353 41.4157 58.7534 39.8976 58.7534 38.025C58.7534 36.1524 57.2353 34.6343 55.3626 34.6343C53.49 34.6343 51.9719 36.1524 51.9719 38.025C51.9719 39.8976 53.49 41.4157 55.3626 41.4157Z" fill="white"/>
<path d="M72.6375 41.4157C74.5102 41.4157 76.0283 39.8976 76.0283 38.025C76.0283 36.1524 74.5102 34.6343 72.6375 34.6343C70.7649 34.6343 69.2468 36.1524 69.2468 38.025C69.2468 39.8976 70.7649 41.4157 72.6375 41.4157Z" fill="white"/>
<path d="M89.9122 41.4157C91.7849 41.4157 93.3029 39.8976 93.3029 38.025C93.3029 36.1524 91.7849 34.6343 89.9122 34.6343C88.0396 34.6343 86.5215 36.1524 86.5215 38.025C86.5215 39.8976 88.0396 41.4157 89.9122 41.4157Z" fill="white"/>
<path d="M107.187 41.4157C109.06 41.4157 110.578 39.8976 110.578 38.025C110.578 36.1524 109.06 34.6343 107.187 34.6343C105.314 34.6343 103.796 36.1524 103.796 38.025C103.796 39.8976 105.314 41.4157 107.187 41.4157Z" fill="white"/>
<path d="M124.462 41.4157C126.335 41.4157 127.853 39.8976 127.853 38.025C127.853 36.1524 126.335 34.6343 124.462 34.6343C122.589 34.6343 121.071 36.1524 121.071 38.025C121.071 39.8976 122.589 41.4157 124.462 41.4157Z" fill="white"/>
<path d="M3.53794 58.7329C5.41058 58.7329 6.92866 57.2148 6.92866 55.3421C6.92866 53.4695 5.41058 51.9514 3.53794 51.9514C1.66529 51.9514 0.147217 53.4695 0.147217 55.3421C0.147217 57.2148 1.66529 58.7329 3.53794 58.7329Z" fill="white"/>
<path d="M20.8128 58.7329C22.6855 58.7329 24.2036 57.2148 24.2036 55.3421C24.2036 53.4695 22.6855 51.9514 20.8128 51.9514C18.9402 51.9514 17.4221 53.4695 17.4221 55.3421C17.4221 57.2148 18.9402 58.7329 20.8128 58.7329Z" fill="white"/>
<path d="M38.0877 58.7329C39.9604 58.7329 41.4785 57.2148 41.4785 55.3421C41.4785 53.4695 39.9604 51.9514 38.0877 51.9514C36.2151 51.9514 34.697 53.4695 34.697 55.3421C34.697 57.2148 36.2151 58.7329 38.0877 58.7329Z" fill="white"/>
<path d="M3.53794 76.0485C5.41058 76.0485 6.92866 74.5305 6.92866 72.6578C6.92866 70.7852 5.41058 69.2671 3.53794 69.2671C1.66529 69.2671 0.147217 70.7852 0.147217 72.6578C0.147217 74.5305 1.66529 76.0485 3.53794 76.0485Z" fill="white"/>
<path d="M20.8128 76.0485C22.6855 76.0485 24.2036 74.5305 24.2036 72.6578C24.2036 70.7852 22.6855 69.2671 20.8128 69.2671C18.9402 69.2671 17.4221 70.7852 17.4221 72.6578C17.4221 74.5305 18.9402 76.0485 20.8128 76.0485Z" fill="white"/>
<path d="M38.0877 76.0485C39.9604 76.0485 41.4785 74.5305 41.4785 72.6578C41.4785 70.7852 39.9604 69.2671 38.0877 69.2671C36.2151 69.2671 34.697 70.7852 34.697 72.6578C34.697 74.5305 36.2151 76.0485 38.0877 76.0485Z" fill="white"/>
<path d="M3.53794 93.3657C5.41058 93.3657 6.92866 91.8476 6.92866 89.975C6.92866 88.1023 5.41058 86.5842 3.53794 86.5842C1.66529 86.5842 0.147217 88.1023 0.147217 89.975C0.147217 91.8476 1.66529 93.3657 3.53794 93.3657Z" fill="white"/>
<path d="M20.8128 93.3657C22.6855 93.3657 24.2036 91.8476 24.2036 89.975C24.2036 88.1023 22.6855 86.5842 20.8128 86.5842C18.9402 86.5842 17.4221 88.1023 17.4221 89.975C17.4221 91.8476 18.9402 93.3657 20.8128 93.3657Z" fill="white"/>
<path d="M38.0877 93.3657C39.9604 93.3657 41.4785 91.8476 41.4785 89.975C41.4785 88.1023 39.9604 86.5842 38.0877 86.5842C36.2151 86.5842 34.697 88.1023 34.697 89.975C34.697 91.8476 36.2151 93.3657 38.0877 93.3657Z" fill="white"/>
<path d="M3.53794 110.683C5.41058 110.683 6.92866 109.165 6.92866 107.292C6.92866 105.419 5.41058 103.901 3.53794 103.901C1.66529 103.901 0.147217 105.419 0.147217 107.292C0.147217 109.165 1.66529 110.683 3.53794 110.683Z" fill="white"/>
<path d="M20.8128 110.683C22.6855 110.683 24.2036 109.165 24.2036 107.292C24.2036 105.419 22.6855 103.901 20.8128 103.901C18.9402 103.901 17.4221 105.419 17.4221 107.292C17.4221 109.165 18.9402 110.683 20.8128 110.683Z" fill="white"/>
<path d="M38.0877 110.683C39.9604 110.683 41.4785 109.165 41.4785 107.292C41.4785 105.419 39.9604 103.901 38.0877 103.901C36.2151 103.901 34.697 105.419 34.697 107.292C34.697 109.165 36.2151 110.683 38.0877 110.683Z" fill="white"/>
<path d="M3.53794 128C5.41058 128 6.92866 126.482 6.92866 124.609C6.92866 122.737 5.41058 121.219 3.53794 121.219C1.66529 121.219 0.147217 122.737 0.147217 124.609C0.147217 126.482 1.66529 128 3.53794 128Z" fill="white"/>
<path d="M20.8128 128C22.6855 128 24.2036 126.482 24.2036 124.609C24.2036 122.737 22.6855 121.219 20.8128 121.219C18.9402 121.219 17.4221 122.737 17.4221 124.609C17.4221 126.482 18.9402 128 20.8128 128Z" fill="white"/>
<path d="M38.0877 128C39.9604 128 41.4785 126.482 41.4785 124.609C41.4785 122.737 39.9604 121.219 38.0877 121.219C36.2151 121.219 34.697 122.737 34.697 124.609C34.697 126.482 36.2151 128 38.0877 128Z" fill="white"/>
</g>
<defs>
<clipPath id="clip0_49_480">
<rect width="128" height="128" fill="white"/>
</clipPath>
</defs>
</svg>
