<svg width="315" height="314" viewBox="0 0 315 314" fill="none" xmlns="http://www.w3.org/2000/svg">
<path d="M152.528 5.65319C153.157 -0.313911 161.843 -0.313904 162.472 5.65318L170.627 82.9339C171.299 89.3073 179.472 91.5011 183.246 86.3212L229.035 23.4697C232.569 18.6195 240.088 22.9706 237.643 28.451L206.002 99.378C203.389 105.235 209.373 111.23 215.235 108.628L286.314 77.0706C291.8 74.635 296.137 82.165 291.278 85.6885L228.395 131.281C223.199 135.049 225.39 143.24 231.773 143.91L309.072 152.027C315.043 152.654 315.043 161.346 309.072 161.973L231.773 170.09C225.39 170.76 223.199 178.951 228.395 182.719L291.278 228.312C296.137 231.835 291.8 239.365 286.314 236.929L215.235 205.372C209.373 202.77 203.389 208.765 206.002 214.622L237.643 285.549C240.088 291.029 232.569 295.38 229.035 290.53L183.246 227.679C179.472 222.499 171.299 224.693 170.627 231.066L162.472 308.347C161.843 314.314 153.157 314.314 152.528 308.347L144.373 231.066C143.701 224.693 135.528 222.499 131.754 227.679L85.9646 290.53C82.431 295.381 74.9123 291.029 77.3571 285.549L108.998 214.622C111.611 208.765 105.627 202.77 99.765 205.372L28.686 236.929C23.1999 239.365 18.8626 231.835 23.7222 228.312L86.6048 182.719C91.801 178.951 89.6101 170.76 83.2269 170.09L5.92786 161.973C-0.0425568 161.346 -0.0425568 152.654 5.92786 152.027L83.2269 143.91C89.6102 143.24 91.801 135.049 86.6048 131.281L23.7221 85.6884C18.8626 82.165 23.1998 74.6349 28.686 77.0706L99.765 108.628C105.627 111.23 111.611 105.235 108.998 99.378L77.3571 28.451C74.9123 22.9706 82.431 18.6195 85.9646 23.4698L131.754 86.3212C135.528 91.5011 143.701 89.3072 144.373 82.9339L152.528 5.65319Z" stroke="white" stroke-width="2"/>
</svg>
